<?xml version="1.0" encoding="UTF-8"?>
<!-- Generated by Pixelmator Pro 3.8 -->
<svg width="1024" height="1024" viewBox="0 0 1024 1024" xmlns="http://www.w3.org/2000/svg">
    <g id="Group">
        <path id="Path" fill="#ebebeb" fill-rule="evenodd" stroke="none" d="M 1024 214.462463 L 1024 809.537109 C 1024 927.902527 927.901978 1023.999573 809.536987 1023.999573 L 214.462997 1023.999573 C 96.098 1023.999573 0 927.902527 0 809.537109 L 0 214.462463 C 0 96.097107 96.098 0 214.462997 0 L 809.536987 0 C 927.901978 0 1024 96.097107 1024 214.462463 Z"/>
    </g>
    <g id="g1">
        <g id="g2">
            <path id="path1" fill="#000000" stroke="none" d="M 144.99852 843.299866 L 144.99852 172.799927 L 274.996033 172.799927 L 553.990662 513.899902 L 490.991852 513.899902 L 764.986511 172.799927 L 894.98407 172.799927 L 894.98407 843.299866 L 757.986694 843.299866 L 757.986694 312.299988 L 810.985657 323.999939 L 527.99115 663.299927 L 511.991455 663.299927 L 235.99678 323.999939 L 280.995911 312.299988 L 280.995911 843.299866 L 144.99852 843.299866 Z"/>
        </g>
    </g>
    <g id="g3">
        <path id="path2" fill="#fb9c43" fill-rule="evenodd" stroke="none" d="M 925.999878 783.999878 L 983.999878 783.999878 L 983.999878 841.999878 L 925.999878 841.999878 Z"/>
    </g>
</svg>
